# xmcd
#
# Track frame offsets: 
#        150
#        23981
#        46100
#        68037
#        99215
#        121662
#        144676
#        173133
#        200882
#        222138
#
# Disc length: 3275 seconds
#
# Revision: 0
# Processed by: cddbd v1.5.2PL0 Copyright (c) Steve Scherf et al.
# Submitted via: ExactAudioCopy v1.0b3
#
DISCID=880cc90a
DTITLE=Various Artist - Phat Dan Sanh
DYEAR=1997
DGENRE=
TTITLE0=Luu Hong - Hoa tu bi
TTITLE1=Duy Quang - May do luan hoi
TTITLE2=Ngoc Minh - Sa mac ben dong Anoma
TTITLE3=Quoc Anh - Tieng hat nhan gian tinh do
TTITLE4=Mai Ngoc Khanh - Dieu phap Lien hoa kinh
TTITLE5=Duy Quang - Chap tay hoa
TTITLE6=Luu Hong - Be tho di le chua
TTITLE7=Quoc Anh - Cu si ao lam
TTITLE8=Mai Ngoc Khanh - Tu bi ca
TTITLE9=Ngoc Minh - Hom nay Phat dan sanh
EXTD=
EXTT0=
EXTT1=
EXTT2=
EXTT3=
EXTT4=
EXTT5=
EXTT6=
EXTT7=
EXTT8=
EXTT9=
PLAYORDER=
